<svg xmlns="http://www.w3.org/2000/svg" xmlns:xlink="http://www.w3.org/1999/xlink" width="47.583" height="47.583" viewBox="0 0 47.583 47.583">
  <defs>
    <filter id="Path_203" x="0" y="0" width="47.583" height="47.583" filterUnits="userSpaceOnUse">
      <feOffset dy="1" input="SourceAlpha"/>
      <feGaussianBlur stdDeviation="2.5" result="blur"/>
      <feFlood flood-opacity="0.149"/>
      <feComposite operator="in" in2="blur"/>
      <feComposite in="SourceGraphic"/>
    </filter>
  </defs>
  <g id="Group_1140" data-name="Group 1140" transform="translate(7.5 6.5)">
    <g transform="matrix(1, 0, 0, 1, -7.5, -6.5)" filter="url(#Path_203)">
      <path id="Path_203-2" data-name="Path 203" d="M16.292,0A16.292,16.292,0,1,1,0,16.292,16.292,16.292,0,0,1,16.292,0Z" transform="translate(7.5 6.5)" fill="#fff"/>
    </g>
    <g id="Group_121" data-name="Group 121" transform="translate(8.802 8.697)">
      <g id="Ellipse_241" data-name="Ellipse 241" transform="translate(9.144 0)" fill="#141414" stroke="#141414" stroke-width="1">
        <circle cx="2.54" cy="2.54" r="2.54" stroke="none"/>
        <circle cx="2.54" cy="2.54" r="2.04" fill="none"/>
      </g>
      <g id="Ellipse_242" data-name="Ellipse 242" transform="translate(9.144 9.144)" fill="#141414" stroke="#141414" stroke-width="1">
        <ellipse cx="2.54" cy="2.794" rx="2.54" ry="2.794" stroke="none"/>
        <ellipse cx="2.54" cy="2.794" rx="2.04" ry="2.294" fill="none"/>
      </g>
      <g id="Ellipse_243" data-name="Ellipse 243" transform="translate(0 5.08)" fill="#141414" stroke="#141414" stroke-width="1">
        <ellipse cx="2.54" cy="2.794" rx="2.54" ry="2.794" stroke="none"/>
        <ellipse cx="2.54" cy="2.794" rx="2.04" ry="2.294" fill="none"/>
      </g>
      <path id="Path_206" data-name="Path 206" d="M1020.609,818.6l-7.7,4.354,7.7,4.354" transform="translate(-1009.987 -815.301)" fill="none" stroke="#141414" stroke-linejoin="round" stroke-width="1"/>
    </g>
  </g>
</svg>
